<svg width="218" height="77" viewBox="0 0 218 77" fill="none" xmlns="http://www.w3.org/2000/svg">
<path fill-rule="evenodd" clip-rule="evenodd" d="M14.072 1.30854H22.5152L22.5024 1.24805C23.9585 1.47625 24.1351 2.01971 24.3138 2.56986C24.3445 2.66444 24.3753 2.75923 24.4126 2.85264V3.6804C24.3827 3.76143 24.3546 3.84338 24.3266 3.92525C24.1045 4.57357 23.8842 5.21688 22.7253 5.35821H14.8615C7.88922 6.02679 6.80676 7.24615 6.55206 8.54192V23.951C8.13596 26.4135 11.4062 26.5975 14.6716 26.7812C14.7668 26.7865 14.8619 26.7919 14.957 26.7973H32.3082C35.0335 26.6063 37.5613 26.1128 39.2805 24.4254V20.4681H29.0608C28.1922 20.1237 27.8942 19.6255 27.5943 19.1241C27.5281 19.0135 27.4619 18.9027 27.3894 18.7934V17.9498C27.7714 16.7718 28.4114 15.9122 29.7995 15.9759H44.5368C45.4601 16.0077 45.7785 16.6126 45.9695 17.4085V24.9539C44.5878 30.2389 38.4432 31.1621 31.6301 31.4805H15.8867C15.1634 31.4027 14.4327 31.3343 13.702 31.2659C7.855 30.7188 2.00932 30.1718 0 24.7947V7.3735C0.732252 4.38718 4.03375 2.02806 14.072 1.30854ZM80.5541 7.59636H65.5843H65.5811C56.8355 8.44959 53.795 11.0825 52.7126 14.3235V24.3617C53.4926 28.5483 57.5996 30.8342 64.8266 31.3563H82.2733C87.6983 30.6655 91.7925 28.9686 93.066 25.1258V14.228C91.6652 8.35408 86.1574 7.90836 80.5541 7.59636ZM79.4175 11.958H66.5776V11.9548C62.5025 12.0058 60.207 12.9832 59.4207 14.6546V23.8492C60.2134 25.3933 61.7384 26.5744 65.2978 26.74H79.513C80.079 26.6363 80.6596 26.5784 81.2403 26.5205C83.2467 26.3204 85.2545 26.1202 86.6668 24.0338V14.5145C85.8072 12.9991 84.1708 11.9739 79.4175 11.958ZM106.804 15.3646V5.08123L132.242 5.10033C135.626 5.28817 138.873 5.57789 139.787 7.50084V12.7126L139.769 12.7313C138.358 14.1832 136.948 15.634 133.579 15.3646H106.804ZM99.7677 2.76668V29.0131H99.7741C99.9046 30.3567 100.535 30.6496 101.29 30.6814H104.951C106.374 30.6273 106.536 29.9109 106.527 29.1086V19.9141H133.56C134.252 19.8152 134.957 19.7319 135.661 19.6486C140.398 19.0888 145.147 18.5275 146.422 13.1869V6.45977C144.205 1.74852 138.674 1.28355 133.121 0.816679C132.374 0.753833 131.626 0.690953 130.885 0.617676H101.914C100.188 0.773677 99.7996 1.6683 99.7677 2.76668ZM152.745 13.5371V29.3824L152.77 29.3856C152.802 30.1624 153.279 30.554 153.884 30.831H157.641C158.66 30.7069 158.959 30.0255 159.182 29.2869V13.5594C159.879 12.6775 160.717 11.8434 162.913 11.4041H169.981C170.713 11.2449 171.35 10.9265 171.828 10.3216V9.17547C171.668 8.14395 171.064 7.57088 170.077 7.42443H163.327C157.052 7.9975 153.668 10.1083 152.745 13.5371ZM205.483 7.30664H186.196L186.218 7.32256C179.437 8.85074 177.017 11.2385 176.508 14.0083L176.444 24.1643C177.097 28.8126 182.168 30.2452 188.329 30.8883H205.865C210.65 30.6304 215.081 29.7708 216.88 24.5273V13.8842C215.957 9.69442 212.216 7.45627 205.483 7.30664ZM204.012 11.5282H189.335L189.3 11.5569C185.67 12.1618 183.06 13.1806 182.805 15.0271V24.0052C184.079 25.597 186.212 26.4248 189.109 26.5521H204.009C204.654 26.3088 205.439 26.1535 206.223 25.9981C208.109 25.6249 209.997 25.251 209.975 23.655V13.8046C209.51 12.6316 207.679 12.2788 205.846 11.9256C205.216 11.8043 204.586 11.6829 204.012 11.5282ZM113.123 41.1653H159.415V76.6158H113.123V41.1653ZM103.369 41.3946H57.0778V76.8451H103.369V41.3946ZM47.1317 41.4773H0.840697V76.9278H47.1317V41.4773ZM217.741 41.4773H171.45V76.9278H217.741V41.4773Z" fill="#4A4A4A"/>
</svg>
