<svg width="252" height="100" viewBox="0 0 252 100" fill="none" xmlns="http://www.w3.org/2000/svg">
<path fill-rule="evenodd" clip-rule="evenodd" d="M95.9687 72.5197C107.705 72.5197 115.736 64.155 115.736 51.532C115.736 38.9102 107.705 30.5443 95.9687 30.5443C84.2984 30.5443 76.2008 38.9102 76.2008 51.532C76.2008 64.155 84.2984 72.5197 95.9687 72.5197ZM63.575 0H76.2008L76.1996 31.4103C82.3879 24.1091 90.9136 21.9892 99.3054 21.9892C113.376 21.9892 129.004 31.3909 129.004 51.6906C129.004 54.1132 128.751 56.4421 128.268 58.6547C130.782 48.7257 141.572 45.0376 158.67 44.6497C164.043 44.5283 170.079 44.5103 175.069 44.5103L175.068 43.1787C175.068 34.0556 169.16 30.3046 158.923 30.3046C151.323 30.3046 145.722 33.4189 145.145 38.8003H131.876C133.281 25.3826 147.517 21.9891 160.035 21.9891C171.071 21.9891 180.846 24.8506 185.238 32.6221L180.656 24.0691H195.43L217.053 66.9213L238.614 24.0691H252L212.954 100H198.815L210.041 78.9158L185.599 33.296C186.949 35.9565 187.698 39.1593 187.698 42.9784L187.698 68.5302C187.698 72.1691 187.804 75.7611 188.125 78.9958H176.378C176.064 76.3323 175.95 73.6859 175.95 71.1189C169.599 78.8492 162.045 81.0716 151.566 81.0716C136.024 81.0716 127.702 72.9369 127.702 63.5278C127.702 62.0295 127.838 60.6379 128.108 59.347C124.964 72.2819 113.819 81.0717 99.0711 81.0717C89.909 81.0717 81.2848 77.8171 75.9661 71.3691C75.9661 73.9446 75.8209 76.5403 75.5364 78.9958H63.1451C63.3606 75.0259 63.5749 70.083 63.5749 66.0834L63.5749 54.6949H12.8607C13.5422 66.0445 21.4463 72.7571 32.3144 72.7571C39.8443 72.7571 46.5423 69.7191 48.785 63.1101H61.8095C59.2764 76.5199 44.8867 81.0716 32.5011 81.0716C9.98082 81.0716 0 68.7905 0 52.2285C0 33.9966 10.3233 21.9891 32.7066 21.9891C50.4076 21.9891 63.4078 31.1027 63.575 50.9839L63.575 0ZM32.1791 30.3046C41.2919 30.3046 49.8184 34.682 50.3084 46.3793H13.1329C14.5072 35.2285 22.3526 30.3046 32.1791 30.3046ZM140.971 62.9198C140.971 55.4514 148.086 53.4053 159.536 53.0336C164.696 52.866 170.424 52.8259 175.069 52.8259L175.068 54.1159C175.068 65.845 167.996 72.9963 154.746 72.9963C144.864 72.9963 140.971 67.7547 140.971 62.9198Z" fill="#4A4A4A"/>
</svg>
