<svg width="76" height="76" viewBox="0 0 76 76" fill="none" xmlns="http://www.w3.org/2000/svg">
<path fill-rule="evenodd" clip-rule="evenodd" d="M51.3316 22.2298C47.6899 18.8098 43.1299 17.0365 37.9999 17.0365C28.9448 17.0365 21.2508 23.1462 18.4946 31.3774V31.381C17.798 33.471 17.3863 35.6876 17.3863 37.9993C17.3863 40.311 17.798 42.5276 18.4946 44.6176L18.4521 44.6502H18.4933C21.2483 52.8835 28.9433 58.9952 37.9999 58.9952C42.6866 58.9952 46.6449 57.7285 49.7483 55.6385L49.7493 55.6393V55.6382C53.4543 53.1682 55.9243 49.4948 56.7476 45.1565H38.0009V31.6665H70.8076C71.2193 33.9465 71.4409 36.3215 71.4409 38.7915C71.4409 49.3998 67.6409 58.3298 61.0543 64.4098H61.0528L61.0533 64.4102C55.2899 69.7302 47.4049 72.8335 37.9999 72.8335C24.3833 72.8335 12.6349 65.0119 6.90328 53.6435V53.6083C4.52912 48.9223 3.16797 43.6349 3.16797 37.9993C3.16797 32.3631 4.52941 27.0752 6.90406 22.3888L6.90328 22.3882C12.6349 10.9882 24.3833 3.1665 37.9999 3.1665C47.4049 3.1665 55.2583 6.61817 61.3066 12.2548L51.3316 22.2298Z" fill="#4A4A4A"/>
</svg>
