<svg width="84" height="85" viewBox="0 0 84 85" fill="none" xmlns="http://www.w3.org/2000/svg">
<path fill-rule="evenodd" clip-rule="evenodd" d="M60.8103 42.9813L58.4535 55.8158H58.4502L58.4502 55.8158H47.0916V84.6733C67.886 82.16 84 64.4536 84 42.9813C84 19.7853 65.1959 0.981234 42 0.981234C18.8041 0.981234 0 19.7853 0 42.9813C0 62.6785 13.5601 79.2058 31.8538 83.7445V55.8158H23.1931V42.9813H23.1963V42.9813H31.8538V37.4509C31.8538 24.0477 37.5408 17.3865 49.818 16.6072C50.0483 16.5925 50.2809 16.58 50.5158 16.5695C51.1157 16.5427 51.7308 16.5293 52.3611 16.5293C55.0219 16.5293 59.6132 17.0511 61.4914 17.5729V29.2074C61.4903 29.2073 61.4893 29.2072 61.4882 29.2071V29.2076C60.4968 29.1033 58.7751 29.0511 56.636 29.0511C56.6102 29.0511 56.5844 29.0511 56.5587 29.0511C56.4166 29.0516 56.2764 29.0531 56.1379 29.0558C49.6229 29.1821 47.0916 31.8267 47.0916 38.4421V42.9813H60.8103Z" fill="#4A4A4A"/>
</svg>
