<svg width="80" height="81" viewBox="0 0 80 81" fill="none" xmlns="http://www.w3.org/2000/svg">
<g clip-path="url(#clip0_384_680)">
<mask id="mask0_384_680" style="mask-type:luminance" maskUnits="userSpaceOnUse" x="-439" y="-887" width="1141" height="1560">
<path d="M-438.047 -886.753H701.964V672.062H-438.047V-886.753Z" fill="white"/>
</mask>
<g mask="url(#mask0_384_680)">
<path fill-rule="evenodd" clip-rule="evenodd" d="M80 40.9857C80 63.0438 62.0895 80.981 39.9952 80.981C17.9034 80.981 0 63.0438 0 40.9857C0 18.887 17.9034 0.980949 39.9952 0.980949C62.0895 0.980949 80 18.887 80 40.9857ZM41.6043 7.52742C41.166 7.51544 40.4069 7.51543 39.995 7.51543C21.5289 7.51543 6.50642 22.505 6.50642 40.9785C6.50642 49.9123 9.99798 58.329 16.3034 64.6432C22.64 70.9719 31.0289 74.4894 39.995 74.4894C48.9419 74.4894 57.3428 70.9719 63.6746 64.6432C69.98 58.329 73.4524 49.9123 73.4524 40.9785V39.4484H49.555V42.5564H70.2818C70.2818 42.5867 70.2784 42.6833 70.2749 42.7825L70.2749 42.7834C70.2712 42.8878 70.2674 42.995 70.2674 43.0305C69.2472 58.8366 56.0233 71.3119 39.995 71.3119C31.9006 71.3119 24.2469 68.1703 18.5258 62.4547C12.7975 56.727 9.62439 49.0862 9.62439 40.9761C9.62439 32.8731 12.7975 25.2467 18.5258 19.5214C24.2469 13.7818 31.9006 10.6211 39.995 10.6211C40.2671 10.6211 40.8221 10.6321 41.2481 10.6405L41.2524 10.6406C41.3872 10.6433 41.5088 10.6457 41.6043 10.6475V7.52742ZM38.3839 58.5135V23.4078H41.6049V55.36H49.5244V58.5135H38.3839ZM32.0308 28.2112C32.0308 30.8595 29.8563 33.005 27.2149 33.005C24.5734 33.005 22.4134 30.8595 22.4134 28.2112C22.4134 25.5485 24.5734 23.3983 27.2149 23.3983C29.8563 23.3983 32.0308 25.5485 32.0308 28.2112Z" fill="#4A4A4A"/>
</g>
</g>
<defs>
<clipPath id="clip0_384_680">
<rect width="80" height="80" fill="white" transform="translate(0 0.980957)"/>
</clipPath>
</defs>
</svg>
