<svg width="80" height="80" viewBox="0 0 80 80" fill="none" xmlns="http://www.w3.org/2000/svg">
<path d="M39.9812 66.6641C25.254 66.6641 13.3024 54.7315 13.3024 40.0019C13.3024 25.2455 25.254 13.3216 39.9812 13.3216C54.7212 13.3216 66.6579 25.2455 66.6579 40.0019C66.6579 54.7315 54.7212 66.6641 39.9812 66.6641ZM39.9812 0C17.9034 0 0 17.9079 0 40.0019C0 62.0789 17.9034 79.9812 39.9812 79.9812C62.0685 79.9812 80 62.0789 80 40.0019C80 17.9079 62.0685 0 39.9812 0Z" fill="#4A4A4A"/>
<path d="M39.9808 26.2944C32.413 26.2944 26.2812 32.4113 26.2812 40.002C26.2812 47.5677 32.4128 53.7028 39.9808 53.7028C47.5557 53.7028 53.7008 47.5675 53.7008 40.002C53.7008 32.4115 47.5557 26.2944 39.9808 26.2944Z" fill="#4A4A4A"/>
</svg>
